<svg width="471" height="170" viewBox="0 0 471 170" fill="none" xmlns="http://www.w3.org/2000/svg">
<path d="M417.037 164.283L379.992 154.357L386.381 130.514L303.029 108.18L309.734 83.1546L409.456 20.75L452.412 32.2602L432.349 107.139L450.083 111.891L441.16 145.192L423.426 140.44L417.037 164.283ZM363.579 88.7119L395.304 97.2126L404.015 64.6995L401.454 64.0131L364.265 86.1503L363.579 88.7119Z" fill="white"/>
<path d="M235.104 154.897C188.592 154.897 164.316 126.541 164.316 84.5174C164.316 42.6974 188.592 14.1375 235.104 14.1375C281.412 14.1375 305.688 42.6974 305.688 84.5174C305.688 126.541 281.412 154.897 235.104 154.897ZM235.104 117.565C258.36 117.565 264.48 109.813 264.48 84.5174C264.48 59.2214 258.36 51.4695 235.104 51.4695C211.644 51.4695 205.524 59.2214 205.524 84.5174C205.524 109.813 211.644 117.565 235.104 117.565Z" fill="white"/>
<path d="M155.772 136.775L118.727 146.701L112.338 122.858L28.9867 145.192L22.2812 120.167L77.4402 16.2621L120.397 4.7519L140.461 79.6305L158.195 74.8785L167.118 108.18L149.384 112.932L155.772 136.775ZM71.6905 98.0574L103.415 89.5567L94.7035 57.0436L92.1418 57.73L71.0041 95.4957L71.6905 98.0574Z" fill="white"/>
</svg>
