<?xml version="1.0" encoding="UTF-8"?>
<svg id="Camada_1" xmlns="http://www.w3.org/2000/svg" version="1.1" viewBox="0 0 400 70">
  <!-- Generator: Adobe Illustrator 30.3.0, SVG Export Plug-In . SVG Version: 2.1.3 Build 182)  -->
  <defs>
    <style>
      .st0 {
        fill: #fff;
      }
    </style>
  </defs>
  <path class="st0" d="M10,6.8v37.2c0,14.3,6.4,19.2,22.1,19.2s21.9-4.2,21.9-19.8-5.3-20.5-19.8-20.5-10.6.7-13.9,3.4V6.8h-10.2ZM160.5,6.8v55.7h10.2v-16.2h1.6c.4-.2.9-.2,1.2-.2,1.9,0,3.7,1.1,4.8,2.5l12.5,13.6h13.2l-19.4-20.5,17.8-18.3h-11.8l-11.8,11.8c-1.4,1.6-3.5,2.6-5.8,2.6h-2.3V6.8h-10.2ZM208.1,6.8v9.9h10.2V6.8h-10.2ZM278.5,11v40c0,7.2,4.2,11.8,15.5,11.8s8.3-.7,11.8-1.6l.4-7.1c-3.2.7-6.4,1.1-9.7,1.1h-1.2c-4.2,0-6.9-1.2-6.9-4.9v-19.2h17.1v-7.6h-17.1v-12.5h-9.9ZM80.2,22.6c-6.2,0-12.2,1.2-17.6,3.4l-.4,7.4c5.3-1.9,10.9-2.8,16.8-2.8h.9c7.9,0,10.9.7,10.9,5.3v1.9c-24.3.7-30.9,2.6-31.4,13.6,0,7.9,6.9,11.8,20.8,11.8s20.8-.2,20.8-14.1v-12c0-12.9-9.5-14.5-20.8-14.5h0ZM129.1,22.6c-11.3,0-19.4,3.7-19.4,14.8v25h9.9v-24.3c0-6,1.9-7.6,10.9-7.6s10.9,1.6,10.9,7.6v24.3h10.2v-25c0-11.3-7.9-14.8-19.2-14.8h-3.4ZM246.6,22.6c-11.3,0-19.2,3.7-19.2,14.8v25h10.4v-24.3c0-6,1.9-7.6,10.6-7.6s10.9,1.6,10.9,7.6v24.3h10.2v-25c0-11.3-8.3-14.8-19.2-14.8h-3.7ZM333.4,22.6c-17.3,0-21.9,5.3-21.9,19.8s5.5,20.8,22.1,20.8c6.9-.2,13.2-1.4,18.9-3.7l.4-7.1c-5.8,2.1-12,3.2-18.5,3.2h-1.1c-7.9,0-10.2-2.6-10.9-7.6,24.9-.4,31.8-2.6,31.9-12.5-.4-8.3-6.7-12.9-20.8-12.9h0ZM376.4,22.6c-6.9,0-14.5,3-14.5,13.6v26.5h10.2v-25.8c0-5.3,1.2-6,6.9-6h10.9v-7.6c-1.8-.4-10.2-.7-13.6-.7h0ZM208.1,23.5v39h10.2V23.5h-10.2ZM333.2,30.2c7.6,0,9.9,1.9,9.9,5.3s-1.9,4.2-15.5,4.9l-5.3.4c0-8.6,1.1-10.6,10.9-10.6h0ZM31.3,30.4c8.3,0,11.8,1.2,11.8,11.6.2,11.6-1.8,13.6-11.3,13.6s-12.2-1.6-12.2-13.6,3.4-11.6,11.6-11.6h0ZM90.8,44.3v6.4c0,3.9-2.3,4.9-9.9,4.9s-10.8-1.1-10.8-6,2.3-4.2,11.5-4.9l9.2-.4ZM379.8,52.6v9.9h10.2v-9.9h-10.2Z"/>
</svg>