<svg xmlns="http://www.w3.org/2000/svg" width="206" height="32" viewBox="0 0 206 32" fill="none"><path d="M5.40454 17.972C5.40454 18.8878 5.4721 19.7889 5.59776 20.6697H0.154038C0.0526936 19.7835 0 18.8838 0 17.972C0 10.7948 3.18327 4.36081 8.21762 0L11.9225 3.69853C7.92982 7.16505 5.40454 12.2745 5.40454 17.972Z" fill="white"></path><path d="M27.8334 26.6046C31.6653 26.6046 34.9134 24.116 36.0483 20.6697H41.6258C40.3666 27.1266 34.6715 32 27.8348 32H24.8623C17.1013 32 10.8104 25.7198 10.8104 17.972C10.8104 10.2243 17.1013 3.94406 24.8623 3.94406H27.8348C34.6702 3.94406 40.3652 8.81743 41.6258 15.2743H36.0483C34.912 11.8281 31.6653 9.33943 27.8334 9.33943H24.8609C20.0847 9.33943 16.2136 13.2039 16.2136 17.972C16.2136 22.7402 20.0847 26.6046 24.8609 26.6046H27.8334Z" fill="white"></path><path fill-rule="evenodd" clip-rule="evenodd" d="M68.4351 31.4604H74.476L60.9836 4.48356H55.1169L41.6245 31.4604H47.6654L50.3285 26.0651H65.772L68.4351 31.4604ZM52.9916 20.6697L58.0503 10.4212L63.1089 20.6697H52.9916Z" fill="white"></path><path fill-rule="evenodd" clip-rule="evenodd" d="M95.8753 23.1489L104.201 31.4604H96.5576L88.4507 23.3674H83.0462V31.4604H77.6417V4.48356H93.8553C99.0788 4.48356 103.313 8.71084 103.313 13.9255C103.313 18.4468 100.127 22.2249 95.8753 23.1489ZM93.8553 9.87894H83.0462V17.972H93.8553C96.0941 17.972 97.9087 16.1605 97.9087 13.9255C97.9087 11.6904 96.0941 9.87894 93.8553 9.87894Z" fill="white"></path><path d="M112.771 26.0651V4.48356H107.367V31.4604H133.038V26.0651H112.771Z" fill="white"></path><path d="M197.127 4.48356L187.76 25.0318L178.392 4.48356H169.519V31.4604H174.924V9.87894L184.829 31.4604H190.69L200.595 9.87894V31.4604H206V4.48356H197.127Z" fill="white"></path><path fill-rule="evenodd" clip-rule="evenodd" d="M151.414 3.94406H148.442C140.681 3.94406 134.39 10.2243 134.39 17.972C134.39 25.7198 140.681 32 148.442 32H151.414C159.175 32 165.466 25.7198 165.466 17.972C165.466 10.2243 159.175 3.94406 151.414 3.94406ZM160.061 17.972C160.061 22.7402 156.19 26.6046 151.414 26.6046H148.442C143.665 26.6046 139.794 22.7402 139.794 17.972C139.794 13.2039 143.665 9.33943 148.442 9.33943H151.414C156.19 9.33943 160.061 13.2039 160.061 17.972Z" fill="white"></path></svg>