<?xml version="1.0" encoding="UTF-8"?><svg id="Camada_2" xmlns="http://www.w3.org/2000/svg" viewBox="0 0 1128.42 617"><defs><style>.cls-1{fill:#fff;}</style></defs><g id="Camada_1-2"><path class="cls-1" d="M258.82,31.37l12.08-11.69c5.85-5.65,10.33-10.13,15.78-15.2,3.7-3.51,5.85-4.48,8.18-4.48,3.51,0,5.85,2.53,5.85,5.84,0,2.53-1.56,4.87-5.26,7.01l-21.63,12.66-13.25,7.79-1.75-1.95v.02Z"/><path class="cls-1" d="M250.05,184.32c14.22-.78,18.32-2.34,18.32-14.22V63.72c0-11.89-4.09-13.44-18.32-14.22v-3.51h49.88v3.51c-14.22.78-18.32,2.34-18.32,14.22v106.38c0,11.89,4.09,13.44,18.32,14.22v3.51h-49.88v-3.51Z"/><path class="cls-1" d="M.85,118.07C.85,73.45,27.54,43.64,68.46,43.64c25.13,0,42.08,11.3,48.32,15.59v26.3h-4.29c-3.12-23.18-22.41-36.24-45.4-36.24-32.15,0-51.43,25.72-51.43,65.46,0,41.69,21.43,66.05,53.38,66.05,16.17,0,35.07-6.23,47.15-24.94l4.28,2.53c-12.66,21.04-32.34,31.76-55.72,31.76C26.37,190.15.84,161.9.84,118.06h.01Z"/><path class="cls-1" d="M234.46,148.66l-2.92,39.16h-94.49v-3.51c14.22-.78,18.32-2.34,18.32-14.22V63.71c0-11.89-4.09-13.44-18.32-14.22v-3.51h49.88v3.51c-14.22.78-18.32,2.34-18.32,14.22v117.29c5.07.78,8.96,1.17,12.28,1.17,31.56,0,39.36-1.75,44.23-17.34l5.07-16.17h4.28-.01Z"/><path class="cls-1" d="M453.26,45.99v3.51c-12.66.78-16.56,4.87-16.56,16.95v121.38h-8.18l-84.75-120.8v100.34c0,12.08,4.48,16.17,18.9,16.95v3.51h-44.81v-3.51c14.42-.78,18.51-4.87,18.51-16.95v-102.29c0-10.52-5.26-14.81-18.51-15.59v-3.51h27.67l83.58,119.82v-99.36c0-12.08-4.28-16.17-18.7-16.95v-3.51h42.87-.02Z"/><path class="cls-1" d="M469.44,184.32c14.22-.78,18.32-2.34,18.32-14.22V63.72c0-11.89-4.09-13.44-18.32-14.22v-3.51h49.88v3.51c-14.22.78-18.32,2.34-18.32,14.22v106.38c0,11.89,4.09,13.44,18.32,14.22v3.51h-49.88v-3.51Z"/><path class="cls-1" d="M538.6,118.07c0-44.62,26.69-74.43,67.61-74.43,25.13,0,42.08,11.3,48.32,15.59v26.3h-4.29c-3.12-23.18-22.41-36.24-45.4-36.24-32.15,0-51.43,25.72-51.43,65.46,0,41.69,21.43,66.05,53.38,66.05,16.17,0,35.07-6.23,47.15-24.94l4.28,2.53c-12.66,21.04-32.34,31.76-55.72,31.76-38.38,0-63.91-28.25-63.91-72.09h0Z"/><path class="cls-1" d="M804.94,184.32v3.51h-47.93v-3.51c16.37-.97,19.68-4.29,15.59-15l-10.52-27.67h-60.2l-9.35,24.74c-4.87,12.47,1.75,16.95,18.12,17.92v3.51h-45.39v-3.51c11.88-.97,14.61-5.84,18.31-15.39l46.95-122.94h9.35l47.15,123.33c3.7,9.55,6.23,14.03,17.92,15h0ZM759.94,135.8l-28.06-73.84-27.86,73.84h55.92Z"/><path class="cls-1" d="M377.51,544.92c0-44.62,26.69-74.43,67.61-74.43,25.13,0,42.08,11.3,48.32,15.59v26.3h-4.29c-3.12-23.18-22.41-36.24-45.4-36.24-32.15,0-51.43,25.72-51.43,65.46,0,41.69,21.43,66.05,53.38,66.05,16.17,0,35.07-6.23,47.15-24.94l4.28,2.53c-12.66,21.04-32.34,31.76-55.72,31.76-38.38,0-63.91-28.25-63.91-72.09h0Z"/><path class="cls-1" d="M513.71,611.16c14.22-.78,18.32-2.34,18.32-14.22v-106.38c0-11.89-4.09-13.44-18.32-14.22v-3.51h49.88v3.51c-14.22.78-18.32,2.34-18.32,14.22v106.38c0,11.89,4.09,13.44,18.32,14.22v3.51h-49.88v-3.51Z"/><path class="cls-1" d="M713.02,542c0,45.98-27.47,72.67-74.42,72.67h-57.09v-3.51c14.22-.78,18.32-2.34,18.32-14.22v-106.38c0-11.89-4.09-13.44-18.32-14.22v-3.51h59.03c45.79,0,72.48,24.55,72.48,69.17h0ZM697.82,543.36c0-40.33-22.21-64.88-60.01-64.88h-24.74v128.78c5.26,1.17,13.64,1.75,27.08,1.75,37.99,0,57.67-22.41,57.67-65.66h0Z"/><path class="cls-1" d="M849.58,611.16v3.51h-47.93v-3.51c16.37-.97,19.68-4.29,15.59-15l-10.52-27.67h-60.2l-9.35,24.74c-4.87,12.47,1.75,16.95,18.12,17.92v3.51h-45.39v-3.51c11.88-.97,14.61-5.84,18.31-15.39l46.95-122.94h9.35l47.15,123.33c3.7,9.55,6.23,14.03,17.92,15h0ZM804.58,562.65l-28.06-73.84-27.86,73.84h55.92Z"/><path class="cls-1" d="M996.9,542c0,45.98-27.47,72.67-74.42,72.67h-57.09v-3.51c14.22-.78,18.32-2.34,18.32-14.22v-106.38c0-11.89-4.09-13.44-18.32-14.22v-3.51h59.03c45.79,0,72.48,24.55,72.48,69.17ZM981.7,543.36c0-40.33-22.21-64.88-60.01-64.88h-24.75v128.78c5.26,1.17,13.64,1.75,27.08,1.75,37.99,0,57.67-22.41,57.67-65.66h.01Z"/><path class="cls-1" d="M1128.42,575.51l-2.92,39.16h-109.3v-3.51c14.22-.78,18.32-2.34,18.32-14.22v-106.38c0-11.89-4.09-13.44-18.32-14.22v-3.51h107.74v34.1h-4.09l-3.12-11.11c-4.29-15.98-12.66-17.34-27.67-17.34h-41.3v60.2h29.81c13.44,0,18.9-1.17,21.43-13.05l1.36-6.04h4.09v44.03h-4.09l-1.36-6.04c-2.53-11.89-7.99-13.05-21.43-13.05h-29.81v62.74c6.62,1.36,13.05,1.75,27.08,1.75,31.76,0,39.36-1.75,44.23-17.34l5.26-16.17h4.09Z"/><path class="cls-1" d="M982.06,329.46c0,45.98-27.47,72.67-74.42,72.67h-57.09v-3.51c14.22-.78,18.32-2.34,18.32-14.22v-106.38c0-11.89-4.09-13.44-18.32-14.22v-3.51h59.03c45.79,0,72.48,24.55,72.48,69.17h0ZM966.87,330.82c0-40.33-22.21-64.88-60.01-64.88h-24.74v128.78c5.26,1.17,13.64,1.75,27.08,1.75,37.99,0,57.67-22.41,57.67-65.66h0Z"/><path class="cls-1" d="M1128.39,398.62v3.51h-47.93v-3.51c16.37-.97,19.68-4.29,15.59-15l-10.52-27.67h-60.2l-9.35,24.74c-4.87,12.47,1.75,16.95,18.12,17.92v3.51h-45.39v-3.51c11.88-.97,14.61-5.84,18.31-15.39l46.95-122.94h9.35l47.15,123.33c3.7,9.55,6.23,14.03,17.92,15h0ZM1083.38,350.11l-28.06-73.84-27.86,73.84h55.92Z"/><path class="cls-1" d="M31.56,341.36v43.06c0,11.89,4.09,13.44,20.46,14.22v3.51H0v-3.51c14.22-.78,18.32-2.34,18.32-14.22v-106.38c0-11.89-4.09-13.44-18.32-14.22v-3.51h49.1c36.44,0,54.75,13.44,54.75,38.38,0,28.25-23.57,43.84-55.72,43.84-5.85,0-12.28-.58-16.56-1.17h0ZM46.75,265.96h-15.2v69.55c3.9.78,8.96,1.36,15.39,1.36,27.47,0,41.89-12.08,41.89-35.65,0-22.21-13.25-35.26-42.08-35.26h0Z"/><path class="cls-1" d="M234.96,398.64v3.51h-47.93v-3.51c16.37-.97,19.68-4.29,15.59-15l-10.52-27.67h-60.2l-9.35,24.74c-4.87,12.47,1.75,16.95,18.12,17.92v3.51h-45.39v-3.51c11.88-.97,14.61-5.84,18.31-15.39l46.95-122.94h9.35l47.15,123.33c3.7,9.55,6.23,14.03,17.92,15h0ZM189.96,350.12l-28.06-73.84-27.86,73.84h55.92Z"/><path class="cls-1" d="M373.34,398.64v3.51c-3.7.78-7.99,1.17-11.69,1.17-10.33,0-17.53-3.12-25.33-15.59l-28.84-44.42c-2.34-3.51-4.87-4.68-11.11-4.68h-17.34v45.79c0,11.89,4.09,13.44,17.34,14.22v3.51h-48.9v-3.51c14.22-.78,18.32-2.34,18.32-14.22v-106.38c0-11.89-4.09-13.44-18.32-14.22v-3.51h49.49c34.29,0,53.77,11.11,53.77,34.88,0,21.82-14.81,34.87-32.93,40.72l31.76,46.95c7.4,11.3,14.22,15.78,23.77,15.78h0ZM336.32,298.1c0-20.85-14.61-32.15-42.08-32.15h-15.2v65.66c4.87.98,15.2,1.36,19.09,1.36,25.72,0,38.19-14.81,38.19-34.87Z"/><path class="cls-1" d="M541.06,355.77v-77.74c0-11.89-3.9-13.44-18.12-14.22v-3.51h49.88v3.51c-14.22.78-18.32,2.34-18.32,14.22v76.37c0,28.83,12.66,42.86,39.55,42.86,24.74,0,39.94-13.05,39.94-42.08v-74.43c0-12.08-4.48-16.17-18.9-16.95v-3.51h43.84v3.51c-13.44.78-17.34,4.87-17.34,16.95v73.84c0,33.12-17.93,49.88-49.88,49.88-33.71,0-50.66-15.98-50.66-48.71h.01Z"/><path class="cls-1" d="M781.88,362.98l-2.92,39.16h-109.3v-3.51c14.22-.78,18.32-2.34,18.32-14.22v-106.38c0-11.89-4.09-13.44-18.32-14.22v-3.51h107.74v34.1h-4.09l-3.12-11.11c-4.29-15.98-12.66-17.34-27.67-17.34h-41.3v60.2h29.81c13.44,0,18.9-1.17,21.43-13.05l1.36-6.04h4.09v44.03h-4.09l-1.36-6.04c-2.53-11.89-7.99-13.05-21.43-13.05h-29.81v62.74c6.62,1.36,13.05,1.75,27.08,1.75,31.76,0,39.36-1.75,44.23-17.34l5.26-16.17h4.09,0Z"/><path class="cls-1" d="M510.85,330.43v-.03h0c-.03-44.96-26.13-72.41-66.63-72.41s-67.77,29.78-67.8,73.97h0v.07h0c.03,44.96,26.13,72.41,66.63,72.41s67.77-29.78,67.8-73.97h0v-.04ZM444.61,398.78c-32.14,0-52.98-26.68-53-68.35.01-41.28,19.1-66.79,51.04-66.79s52.98,26.68,53,68.35c-.01,41.28-19.1,66.79-51.04,66.79h0Z"/><path class="cls-1" d="M462.86,362.48h-15.4c9.29,26.58,32.62,42.75,63.4,41.95v-5.65c-22.86,0-40-13.51-48-36.3h0Z"/></g></svg>