<?xml version="1.0" encoding="UTF-8"?><svg id="Camada_2" xmlns="http://www.w3.org/2000/svg" viewBox="0 0 629.48 64.1"><defs><style>.cls-1{fill:#fff;}</style></defs><g id="Camada_1-2"><path class="cls-1" d="M14.74,52.08h35.26v11.18H0V.85h49.6v11.17H14.74v13.75h30.41v11.17H14.74v15.14Z"/><path class="cls-1" d="M101.23,63.26l-18.85-25.56h-7v25.56h-14.93V.85h14.93v24.12h7L99.8.85h15.81l-21.71,30.19,23.79,32.22h-16.46Z"/><path class="cls-1" d="M134.8,60.33c-4.92-2.36-9-6.17-11.68-10.92-2.73-4.8-4.1-10.59-4.09-17.36,0-6.77,1.37-12.56,4.09-17.35,2.68-4.75,6.76-8.56,11.68-10.92,11.41-5,24.4-5,35.81,0,4.92,2.38,9,6.2,11.68,10.96,2.72,4.79,4.08,10.56,4.09,17.31,0,6.75-1.36,12.52-4.11,17.31-2.69,4.77-6.78,8.61-11.71,11-11.4,4.99-24.36,4.99-35.76,0v-.03ZM166.3,47.33c3.21-3.33,4.81-8.33,4.81-15s-1.61-12.04-4.83-15.46c-3.22-3.42-7.75-5.12-13.59-5.1-5.82,0-10.35,1.67-13.58,5-3.23,3.33-4.85,8.33-4.85,15,0,6.97,1.59,12.14,4.77,15.52,3.18,3.38,7.73,5.06,13.66,5.05,5.87,0,10.41-1.67,13.61-5.02h0Z"/><path class="cls-1" d="M243.52.85h14.08v62.41h-15l-31.34-42.06v42.06h-14.09V.85h15l31.33,42,.02-42Z"/><path class="cls-1" d="M284.17,60.33c-4.92-2.36-9-6.17-11.68-10.92-2.73-4.8-4.1-10.59-4.09-17.36,0-6.77,1.37-12.56,4.09-17.35,2.68-4.75,6.76-8.56,11.68-10.92,11.41-5,24.4-5,35.81,0,4.93,2.37,9.02,6.2,11.71,10.96,2.72,4.79,4.08,10.56,4.09,17.31,0,6.75-1.36,12.52-4.09,17.31-2.69,4.77-6.78,8.61-11.71,11-11.4,4.99-24.36,4.99-35.76,0l-.05-.03ZM315.67,47.33c3.21-3.33,4.81-8.33,4.81-15s-1.61-12.04-4.83-15.46c-3.22-3.42-7.75-5.13-13.6-5.12-5.82,0-10.35,1.67-13.58,5-3.23,3.33-4.85,8.33-4.85,15,0,6.97,1.59,12.14,4.77,15.52,3.18,3.38,7.73,5.07,13.66,5.06,5.88,0,10.43-1.66,13.64-5.01h-.02Z"/><path class="cls-1" d="M403.09.85h18.05v62.41h-14V19.36l-16.95,34.84h-12.57l-16.93-33.62v42.68h-14V.85h18l19.43,39.35L403.09.85Z"/><path class="cls-1" d="M434.43,63.26V.85h14.93v62.41h-14.93Z"/><path class="cls-1" d="M460.57,61.2v-11.73c3.22,1.05,6.52,1.8,9.87,2.26,3.41.52,6.84.79,10.29.82,4.53,0,7.77-.61,9.7-1.82,1.89-1.11,3.01-3.17,2.91-5.35.05-1.15-.26-2.28-.89-3.25-.78-.98-1.82-1.73-3-2.15-1.91-.73-3.89-1.26-5.9-1.6l-5.15-1c-6.78-1.33-11.69-3.46-14.74-6.39-3.05-2.93-4.57-6.86-4.56-11.79,0-6.16,2.41-10.89,7.23-14.19C471.15,1.71,478.3.04,487.77,0c5.73-.08,11.45.59,17,2v11.82c-2.58-.75-5.21-1.3-7.87-1.63-2.91-.41-5.85-.61-8.79-.61-5.12,0-8.79.61-11,1.83-2.04.97-3.34,3.03-3.31,5.29-.04,1.08.23,2.16.76,3.1.64.94,1.54,1.67,2.6,2.09,1.65.69,3.36,1.2,5.12,1.52l5.19,1c4.17.69,8.22,2.01,12,3.9,2.71,1.35,4.99,3.43,6.58,6,1.4,2.55,2.09,5.42,2,8.33.09,3.74-1.07,7.41-3.29,10.42-2.44,3.1-5.73,5.43-9.47,6.7-4.72,1.65-9.7,2.43-14.7,2.32-6.78.05-13.53-.92-20.02-2.89Z"/><path class="cls-1" d="M530.96,63.26V12.57h-22.14V.85h59.2v11.72h-22.13v50.69h-14.93Z"/><path class="cls-1" d="M614.69,63.26l-5.95-16.53h-26.9l-5.95,16.53h-14.53L584.69.85h21.46l23.33,62.41h-14.79ZM585.86,35.55h18.9l-9.45-26.27-9.45,26.27Z"/></g></svg>