<?xml version="1.0" encoding="UTF-8"?><svg id="Camada_2" xmlns="http://www.w3.org/2000/svg" viewBox="0 0 826.95 223.99"><defs><style>.cls-1{fill:#fff;}</style></defs><g id="Camada_1-2"><polygon class="cls-1" points="709.87 72.22 684.84 146.44 703.32 146.47 720.69 92.31 738.04 146.63 756.57 146.42 731.45 72.39 709.87 72.22"/><polygon class="cls-1" points="668.05 72.4 613.4 72.39 613.27 88.7 632.25 88.73 632.23 146.51 649.17 146.26 649.13 88.74 668.18 88.69 668.05 72.4"/><polygon class="cls-1" points="826.87 130.16 800.82 130.22 800.85 72.2 783.83 72.29 783.84 146.57 826.95 146.6 826.87 130.16"/><polygon class="cls-1" points="329.4 130.22 329.42 72.23 312.53 72.3 312.53 146.58 355.59 146.6 355.5 130.16 329.4 130.22"/><rect class="cls-1" x="568.11" y="72.14" width="16.89" height="74.45"/><path class="cls-1" d="M530.03,107.99c6.87-7.29,7.34-15.57,4.06-23.44-2.91-6.13-9.7-11.81-17.78-11.91l-32.49-.42v74.41s34.49-.3,34.49-.3c9.31-.08,16.88-7.12,19.24-14.38,2.95-9.71-.1-18.23-7.51-23.96ZM515.07,88.91c3,.67,4.04,3.69,3.99,6.19-.15,7.4-8.36,6.9-18.2,6.13l-.13-12.74c4.69-.04,9.55-.65,14.34.42ZM517.53,130.03c-5.76,1.37-11.47.46-16.8.53v-14.01s16.27.39,16.27.39c3.19.08,4.43,3.72,4.63,6.08.2,2.45-.65,6.18-4.1,7Z"/><path class="cls-1" d="M266.23,105.17l-25.56,14.92,23.72.45c-3.12,7.72-9.78,10.43-16.65,10.9-11.41.77-21.49-5.08-24.14-15.49-2.64-10.36,1.5-21.74,10.93-26.16,9.67-4.53,21.07-2.21,28.06,6.27l14.25-8.34c-10.7-16.08-31.62-21-48.71-13.28-16.62,7.51-25.52,25.94-21.3,44.21,4.03,17.44,19.96,29.68,38.92,29.52,11.26-.09,21.53-4.26,28.21-12.24,7.01-8.38,8.73-18.99,8.02-30.65l-15.74-.11Z"/><path class="cls-1" d="M415.04,70.99c-21.34,0-38.64,17.24-38.64,38.51s17.3,38.51,38.64,38.51,38.64-17.24,38.64-38.51-17.3-38.51-38.64-38.51ZM415.04,131.33c-12.1,0-21.9-9.77-21.9-21.83s9.81-21.83,21.9-21.83,21.9,9.77,21.9,21.83-9.81,21.83-21.9,21.83Z"/><path class="cls-1" d="M19.89,23.41C8.26,34.68,2.04,49.6.34,65.51l-.34,13.16c.08,34.39,30.16,63.74,63.92,68.63l31.84.73c-.07,11.27-7.23,21.22-17.72,25.25-11.06,4.25-43.87-.31-64.01,2.2l51.25,48.51,15.56-.37c12.45-.27,23.45-5.36,34.21-12.11,21.59-13.55,33.47-36.79,33.74-63.49l-52.97-49.45c-7.64-.37-15.44.42-23.44-.62-9.58-1.25-17.84-8.43-19.9-16.48-2.49-9.74.25-19.21,7.7-25.46,3.54-2.97,8.09-5.91,12.74-5.96l22.6-.23.07,47.07c.05.42-.04,1.62.22,1.68l2.71.06,50.27.05.05-98.68-83.82.03c-17.53,2.89-32.9,10.95-45.15,23.38Z"/></g></svg>