<svg xmlns="http://www.w3.org/2000/svg" width="142" height="20" viewBox="0 0 142 20" fill="none"><path d="M36.8941 0C33.9934 0 31.526 1.6751 30.4513 4.3674L24.2251 19.9945H27.8577L33.5877 5.6148C34.147 4.2111 35.3834 3.3722 36.8968 3.3722C38.4102 3.3722 39.6466 4.2111 40.2059 5.6148L45.9359 19.9945H49.5685L43.3423 4.3674C42.2649 1.6751 39.7947 0 36.8941 0Z" fill="white"></path><path d="M67.235 3.3749H76.384V19.9973H79.756V3.3749H88.905V0H67.235V3.3749Z" fill="white"></path><path d="M98.297 7.4407V12.5565C98.297 16.658 101.634 19.9973 105.738 19.9973H118.709V16.6223H105.738C103.495 16.6223 101.672 14.7992 101.672 12.5565V7.4407C101.672 5.1981 103.495 3.3749 105.738 3.3749H118.709V0H105.738C101.637 0 98.297 3.3365 98.297 7.4407Z" fill="white"></path><path d="M135.783 8.3125H127.057C125.708 8.3125 124.6 7.2159 124.589 5.867V5.8122C124.603 4.4716 125.708 3.3749 127.057 3.3749H140.37V0H127.057C123.835 0 121.214 2.621 121.214 5.8424C121.214 9.0637 123.835 11.6847 127.057 11.6847H135.783C137.132 11.6847 138.24 12.7814 138.251 14.1302V14.1851C138.237 15.5257 137.132 16.6223 135.783 16.6223H122.47V19.9973H135.783C139.005 19.9973 141.626 17.3763 141.626 14.1549C141.626 10.9335 139.005 8.3125 135.783 8.3125Z" fill="white"></path><path d="M94.673 0H91.298V19.9973H94.673V0Z" fill="white"></path><path d="M55.0565 0.3372C52.7261 1.1679 51.1607 3.3804 51.1607 5.8451V20H54.5356V5.8424C54.5493 4.4716 55.6569 3.3722 57.0058 3.3722H64.775V0H57.0058C56.3395 0 55.6843 0.112399 55.0592 0.334499L55.0565 0.3372Z" fill="white"></path><path d="M18.9061 0V4.5812C18.7334 6.6676 16.987 8.3125 14.8568 8.3125H7.4407C5.9411 8.3125 4.5456 8.7622 3.3749 9.5298V0H0V19.9973H3.3749V15.7505C3.3749 13.5079 5.1981 11.6847 7.4407 11.6847H14.8568C16.3509 11.6847 17.7382 11.2378 18.9061 10.4784V19.9973H22.281V4.5812C22.2865 4.4688 22.2975 4.3591 22.2975 4.2467V0H18.9061Z" fill="white"></path></svg>