<?xml version="1.0" encoding="UTF-8"?><svg id="Camada_2" xmlns="http://www.w3.org/2000/svg" viewBox="0 0 239.91 110.58"><defs><style>.cls-1{fill:#fff;}</style></defs><g id="Layer_1"><path class="cls-1" d="M64.82,79.16c-4.04-.69-6.24-4.39-6.24-9.01l-.12.46v-31.89c0-8.44-5.32-14.33-14.1-14.33s-15.83,6.12-19.41,13.17v-11.67c0-.92-.58-1.5-1.5-1.5s-1.96.23-3,.58L1.04,31.89c-1.73.69-1.16,2.77.69,2.77,4.97-.58,6.24,2.43,6.24,7.51v27.96c0,4.62-2.31,8.32-6.24,9.01-1.96.23-1.62,2.54,0,2.54h62.98c1.5,0,1.85-2.31.12-2.54ZM41.48,71.88c-.58,4.39-3.35,7.51-8.2,7.51-5.55,0-8.32-3.93-8.32-9.24v-26.81c3-3.58,7.51-6.01,10.86-6.01,4.04,0,5.66,3.35,5.66,12.02v22.53Z"/><path class="cls-1" d="M81.58,21.26c4.28,0,10.52-2.08,10.52-10.63,0-6.12-4.28-10.63-10.52-10.63s-10.52,4.39-10.52,10.63,4.16,10.63,10.52,10.63Z"/><path class="cls-1" d="M97.99,80.43c0-.81-.35-1.16-1.27-1.27-3.93-.69-6.24-4.39-6.24-9.01V25.88c0-.92-.46-1.5-1.39-1.5-1.04,0-2.08.23-3,.58l-19.41,6.93c-.81.35-1.16.81-.92,1.62.23.81.69,1.16,1.62,1.16,4.97-.58,6.12,2.43,6.12,7.51v27.96c0,4.62-2.2,8.32-6.12,9.01-.92.12-1.27.46-1.27,1.27s.46,1.27,1.27,1.27h29.35c.81,0,1.27-.46,1.27-1.27Z"/><path class="cls-1" d="M236.08,91.4c-11.44,13.4-88.51-10.75-109.2-12.94l19.64-44.83c1.73-4.04,3.12-5.43,5.08-5.55.69-.12,1.04-.69,1.04-1.39s-.46-1.16-1.16-1.16h-16.52c-.69,0-1.27.46-1.27,1.27s.46,1.16,1.16,1.27c4.04.69,4.51,2.31,3.12,5.55l-9.82,23.69-9.48-23c-1.73-4.04-1.16-5.55,3.12-6.24.69-.12,1.04-.46,1.04-1.27,0-1.04-.46-1.27-1.16-1.27h-26.81c-.81,0-1.16.58-1.16,1.27s.35,1.16,1.04,1.27c2.2.35,3.58,1.27,5.43,5.55l19.53,44.72c-22.76,0-30.51,12.71-30.51,20.57,0,8.44,6.36,11.67,12.02,11.67,6.47,0,16.29-6.01,22.19-23.8,17.1,1.62,67.83,27.16,96.95,23,14.56-2.08,19.88-12.6,19.53-17.22-.23-2.43-2.08-3-3.81-1.16ZM106.43,94.52c-1.96,0-3.12-1.5-2.08-3.58,1.27-2.66,7.74-4.62,11.67-4.51-1.85,3.24-5.55,8.09-9.59,8.09Z"/><path class="cls-1" d="M161.32,12.99c.32,0,.49-.16.53-.48.23-1.85,2.03-3.31,4.14-3.42v13.29c0,.94-.46,1.63-1.17,1.75-.32.04-.48.21-.48.53s.21.53.53.53h6.82c.32,0,.53-.21.53-.53s-.16-.49-.46-.53c-.72-.13-1.18-.81-1.18-1.75v-13.29c2.12.11,3.92,1.57,4.14,3.42.04.32.21.48.53.48.17,0,.32-.06.42-.18.09-.1.13-.24.11-.38l-.57-6.07c-.07-.47-.39-.52-.53-.52-.41,0-.49.32-.53.48-.05.23-.19.42-1.35.42h-9.08c-1.16,0-1.3-.19-1.35-.43-.04-.15-.12-.47-.52-.47-.14,0-.46.05-.53.53l-.56,6.04c-.02.15.02.29.11.39.1.11.25.18.42.18Z"/><path class="cls-1" d="M176.28,7.81c.72.13,1.18.81,1.18,1.75v2.01l.03-.1v10.92c0,1.59-.71,1.71-.94,1.75-.32.04-.48.21-.48.53s.21.53.53.53h4.8c.32,0,.53-.21.53-.53s-.16-.49-.46-.53c-.77-.14-1.31-.86-1.31-1.75v-9.88l4.94,11.06c.14.29.36.68.71.68h0c.35,0,.56-.4.69-.69l5.06-11.76v10.58c0,.8-.36,1.66-1.17,1.75-.42.05-.5.32-.5.53,0,.31.23.53.56.53h6.82c.32,0,.53-.21.53-.53s-.16-.49-.46-.53c-.71-.13-1.18-.81-1.18-1.75v-12.82c0-.94.46-1.63,1.17-1.75.32-.04.48-.21.48-.53s-.21-.53-.53-.53h-5.57c-.66,0-.89.56-1.1,1.06l-3.45,8.1-1.97-4.17c-.36-.75-.64-1.38-.88-1.92-1.06-2.36-1.35-3-3.11-3.07h-4.85c-.32,0-.53.21-.53.53s.16.49.46.53Z"/></g></svg>