<?xml version="1.0" encoding="UTF-8"?>
<svg xmlns="http://www.w3.org/2000/svg" viewBox="5.749 21.359 80.282 80.282">
  <title>nineyards monogram</title>
  <defs>
    <clipPath id="n-clip">
      <rect x="0.749" y="16.359" width="77.251" height="90.282"/>
    </clipPath>
  </defs>
  <g clip-path="url(#n-clip)" fill="#FFFFFF">
    <path d="M178.1,87.6c-3.7-0.6-6-4-6-8.8v-2l-0.1,0.5V47.4c0-8.9-5.6-14.6-14.3-14.6c-7.8,0-14.9,4.6-19.2,12.4V34.5
		c0-1.1-0.7-1.8-1.8-1.8c-0.9,0-1.9,0.2-3.1,0.6l-19.4,6.9c-0.9,0.3-1.3,1.1-1.2,1.8c0.1,0.7,0.8,1.4,2,1.4c0,0,0,0,0,0
		c1.9-0.2,3.3,0.1,4.2,0.9c1.2,1.1,1.8,3,1.8,6.3v28c0,4.7-2.4,8.1-6,8.8c-0.6,0.1-1.1,0.4-1.3,0.7c-0.2-0.4-0.6-0.6-1.3-0.7
		c-3.7-0.6-6-4.1-6-8.8V34.5c0-1.1-0.6-1.8-1.6-1.8c-1,0-2.1,0.2-3.1,0.6l-19.4,6.9c-0.6,0.3-1.4,0.8-1.1,1.9
		c0.3,0.9,0.8,1.3,1.9,1.3c0,0,0,0,0,0c1.9-0.2,3.2,0.1,4.1,0.9c1.2,1.1,1.7,3,1.7,6.4v28c0,4.8-2.3,8.1-5.9,8.8
		c-0.7,0.1-1.1,0.3-1.3,0.7c-0.2-0.4-0.6-0.7-1.2-0.7c-3.7-0.6-6-4-6-8.8v-2l-0.1,0.5V47.4c0-8.9-5.6-14.6-14.3-14.6
		c-7.8,0-14.9,4.6-19.2,12.4V34.5c0-1.1-0.7-1.8-1.8-1.8c-0.9,0-1.9,0.2-3.1,0.6l-19.4,6.9c-0.9,0.3-1.3,1.1-1.2,1.8
		c0.1,0.7,0.8,1.4,2,1.4c0,0,0,0,0,0c1.9-0.2,3.3,0.1,4.2,0.9c1.2,1.1,1.8,3,1.8,6.3v28c0,4.7-2.4,8.1-6,8.8
		c-1.1,0.1-1.6,0.9-1.6,1.6c0,0.7,0.6,1.4,1.6,1.4h63c0.6,0,1.1-0.3,1.3-0.8c0.2,0.5,0.7,0.8,1.3,0.8h29.4c0.6,0,1.1-0.3,1.3-0.7
		c0.3,0.4,0.7,0.7,1.3,0.7h63c0.9,0,1.5-0.7,1.5-1.5C179.5,88.5,179.1,87.7,178.1,87.6z M154.5,58v22.5c-0.6,4.6-3.5,7.3-8,7.3
		c-5.1,0-8.1-3.4-8.1-9V52.1c2.9-3.4,7.3-5.9,10.6-5.9C153,46.2,154.5,49.5,154.5,58z M56.9,58v22.5c-0.6,4.6-3.5,7.3-8,7.3
		c-5.1,0-8.1-3.4-8.1-9V52.1c2.9-3.4,7.3-5.9,10.6-5.9C55.3,46.2,56.9,49.5,56.9,58z"/>
  </g>
</svg>
