<?xml version="1.0" encoding="UTF-8"?><svg id="Camada_2" xmlns="http://www.w3.org/2000/svg" viewBox="0 0 813.68 200.18"><defs><style>.cls-1{fill:#fff;}</style></defs><g id="Camada_1-2"><g id="PiJXF7.tif"><path class="cls-1" d="M502.98,139.21l-51.26.19c-6.97.03-12.36-4.85-13.41-11.49l-.25-13.86,13.22-.05.26,12.01,50.71.1.12-26.58-50.69-.05c-7.16,0-13.45-5.31-13.43-12.53l.07-28.78c.02-6.51,5.65-11.84,12.31-11.84l52,.02c6.7,0,12.76,5.01,12.85,11.39l.19,13.82h-13.09s-.25-11.97-.25-11.97l-50.68.02-.04,26.42,52.47.26c6.71.03,11.58,6.94,11.62,13.16l.16,25.23c.04,6.92-4.81,14.5-12.88,14.53Z"/><path class="cls-1" d="M630.62,46.49l-.16,81.95c0,5.13-5.1,8.62-8.62,10.05-4.32,1.76-10.43,1.16-13.53-2.79l-28.52-36.37-27.4,34.93c-3.48,4.43-9.1,6.25-14.43,4.42-4.07-1.4-9.06-5.82-9.08-11.45l-.22-80.86,13.83-.3.16,79.77,37.09-47.48,37.36,47.66.36-79.85,13.17.3Z"/><path class="cls-1" d="M424.77,111.14c-1.33,15.7-12.82,27.83-28.49,27.97l-51.64.47V46.07s52.03.49,52.03.49c16.63.16,28.54,14.76,28.2,30.97l-.11,33.61ZM411.4,109.78v-33.91c-.87-9.1-7.52-16.04-16.78-16.1l-36.74-.27.2,66.42,34.6-.07c9.89-.02,17.7-5.35,18.73-16.08Z"/><path class="cls-1" d="M785.53,111.1l-38.79.52-.14,27.8-13.31-.04-.03-93.25,53.17.53c17.05.17,28.24,16.4,27.17,32.86.37,16.79-10.69,30.12-28.08,31.58ZM800.25,80.06c1.13-11.21-6.1-19.73-16.9-20.4l-36.62-.03.03,38.7,36.19-.25c10.05-.07,17.04-7.46,17.3-18.02Z"/><polygon class="cls-1" points="279.77 91.87 332.18 139.18 313.59 139.5 266.89 97.52 266.87 139.4 253.61 139.29 253.58 46.16 266.8 46.37 266.95 86.24 310.95 46.49 330.05 46.38 279.77 91.87"/><path class="cls-1" d="M699.64,117.76l-42.21-.02-8.23,21.52-13.49-.07,36.08-93.11,13.38.07,36.17,93.21-13.7-.03-8-21.57ZM694.38,104.47l-15.98-40.63-16.05,40.69,32.03-.06Z"/><polygon class="cls-1" points="153.09 82.3 141.61 82.51 141.54 58.89 74.76 58.89 59.06 44.03 59.04 82.47 47.03 82.44 47.12 23.64 105.93 23.58 105.85 35.57 67.62 35.64 79.29 47.35 153.12 47.15 153.09 82.3"/><polygon class="cls-1" points="153.09 117.61 153.18 176.47 94.32 176.46 94.71 164.56 132.94 164.49 121.52 152.75 47.33 152.88 47.07 117.65 59.01 117.53 59.15 141.26 126.55 141.42 141.36 155.96 141.59 117.58 153.09 117.61"/><polygon class="cls-1" points="12.18 105.55 .11 105.57 0 70.54 23.75 70.58 23.92 47.5 35.9 47.52 35.72 82.58 12.18 82.59 12.18 105.55"/><path class="cls-1" d="M152.97,35.63l-35.08-.12-.14-23.64-23.41.03c-.19-3.64-.36-7.81,1.17-11.9l34.26.2.09,23.42,23.04.05.08,11.96Z"/><path class="cls-1" d="M105.96,199.88c-11.5-.13-22.87-.44-35.03.3l-.07-23.73-23.73-.03v-11.94s35.7.02,35.7.02l-.04,23.81,23.2-.04-.04,11.6Z"/><polygon class="cls-1" points="35.81 129.5 .2 129.58 .29 117.64 23.81 117.53 23.85 94.41 58.89 94.29 58.93 105.81 35.71 105.65 35.81 129.5"/><polygon class="cls-1" points="176.81 105.65 141.4 105.87 141 94.45 164.85 94.42 164.84 70.56 199.97 70.56 199.97 82.58 176.82 82.53 176.81 105.65"/><polygon class="cls-1" points="176.83 152.39 165.03 153.07 164.78 117.58 188.71 117.47 188.6 94.48 200.12 94.47 200.14 129.53 176.82 129.49 176.83 152.39"/><polygon class="cls-1" points="129.69 199.89 117.99 200.08 117.87 188.31 129.81 188.37 129.69 199.89"/><rect class="cls-1" x="70.9" y=".02" width="11.9" height="12.01" transform="translate(70.52 82.85) rotate(-89.77)"/><rect class="cls-1" x="23.69" y="141.18" width="12.23" height="11.7" transform="translate(-2.95 .63) rotate(-1.15)"/><rect class="cls-1" x="164.74" y="47.29" width="12.1" height="11.62"/></g></g></svg>