<?xml version="1.0" encoding="UTF-8"?><svg id="Camada_2" xmlns="http://www.w3.org/2000/svg" viewBox="0 0 618 216.8"><defs><style>.cls-1{fill:#fff;}</style></defs><g id="Camada_1-2"><path class="cls-1" d="M62.4,32.7c14.6,0,27.1,5.2,37.4,15.6,10.3,10.3,15.5,22.7,15.5,37.3s-5.4,27.5-16.2,38c10.8,10.5,16.2,23.2,16.2,38.2s-5.2,27.1-15.5,37.4-22.8,15.5-37.4,15.5H0V32.7h62.4ZM62.4,108.7c6.4,0,11.9-2.3,16.4-6.8s6.8-10,6.8-16.4-2.3-11.9-6.8-16.4-10-6.8-16.4-6.8H29.8v46.3h32.6v.1ZM78.8,178.2c4.5-4.5,6.8-10,6.8-16.4s-2.3-11.9-6.8-16.4-10-6.8-16.4-6.8H29.8v46.3h32.6c6.4,0,11.9-2.3,16.4-6.8v.1Z"/><path class="cls-1" d="M185.2,15.8c16.6-9.7,34.7-14.6,54.3-14.6s37.6,4.9,54.1,14.6c16.6,9.6,29.7,22.7,39.3,39.3,9.6,16.5,14.4,34.5,14.4,54.1s-2.9,28.7-8.7,42c-5.6,13.2-13.2,24.6-22.8,34.2-9.6,9.6-21.1,17.2-34.4,23-13.2,5.6-27.2,8.4-41.8,8.4s-37.7-4.8-54.3-14.4c-16.5-9.6-29.6-22.6-39.3-39.1-9.6-16.6-14.4-34.7-14.4-54.3s4.8-37.6,14.4-54.1c9.7-16.6,22.8-29.7,39.3-39.3l-.1.2ZM285.9,155.9c13-13,19.4-28.5,19.4-46.7s-6.5-33.7-19.4-46.7c-12.8-13-28.3-19.4-46.5-19.4s-33.7,6.5-46.7,19.4c-13,13-19.4,28.5-19.4,46.7s6.5,33.7,19.4,46.7c13,12.8,28.5,19.2,46.7,19.2s33.7-6.4,46.5-19.2Z"/><path class="cls-1" d="M451.9,100.1c10.8,4.5,19.6,11.4,26.3,20.6,6.9,9.3,10.7,19.6,11.6,31,.9,11-1.1,21.4-6.1,31s-12.3,17.4-22.1,23.3c-10.4,6.4-22,9.6-34.7,9.6h-1.1c-16.9,0-31.3-6-43.4-18-12-12.1-18-26.6-18-43.6v-6.8h35.2v6.8c0,7.2,2.6,13.4,7.7,18.5s11.3,7.7,18.5,7.7h2c7.4-.1,13.2-2.1,17.4-6.1,4.3-4,6.9-8.7,8-14.1.6-3.3.5-6.6-.2-10-.6-3.3-2.3-6.6-5-10-2.6-3.3-6.2-6-10.9-8l-34.5-16.6c-10.8-4.5-19.6-11.4-26.5-20.6-6.9-9.4-10.7-19.8-11.6-31.1-.9-11,1.1-21.4,6.1-31,5-9.6,12.3-17.4,22.1-23.3,10.2-6.3,21.8-9.4,34.7-9.4h1.1c17,0,31.4,6.1,43.4,18.2,12,12,18,26.4,18,43.3v6.8h-35.2v-6.8c0-7.2-2.6-13.4-7.7-18.5-5.1-5.1-11.3-7.7-18.5-7.7h-2c-7.4.1-13.2,2.2-17.4,6.2s-6.9,8.7-8,13.9c-.6,3.3-.6,6.6,0,10,.7,3.3,2.4,6.6,5,10,2.7,3.3,6.4,6,11,8l34.7,16.7h.1Z"/><path class="cls-1" d="M581.3,120.6l36.7,95h-36.3l-19-49.8-20.8,49.7v.2h-35.2V33.9h35.2v107.3l42.7-107.3h33.1l-36.3,86.7h-.1Z"/></g></svg>