<?xml version="1.0" encoding="utf-8"?>
<!-- Generator: Adobe Illustrator 23.0.6, SVG Export Plug-In . SVG Version: 6.00 Build 0)  -->
<svg version="1.1" id="Layer_1" xmlns="http://www.w3.org/2000/svg" xmlns:xlink="http://www.w3.org/1999/xlink" x="0px" y="0px"
	 viewBox="0 0 552.8 127.6" style="enable-background:new 0 0 552.8 127.6;" xml:space="preserve">
<style type="text/css">
	.st0{fill:#FFFFFF;}
</style>
<g>
	<ellipse cx="97.2" cy="19.3" rx="10.8" ry="10.9"/>
	<path d="M178.1,87.6c-3.7-0.6-6-4-6-8.8v-2l-0.1,0.5V47.4c0-8.9-5.6-14.6-14.3-14.6c-7.8,0-14.9,4.6-19.2,12.4V34.5
		c0-1.1-0.7-1.8-1.8-1.8c-0.9,0-1.9,0.2-3.1,0.6l-19.4,6.9c-0.9,0.3-1.3,1.1-1.2,1.8c0.1,0.7,0.8,1.4,2,1.4c0,0,0,0,0,0
		c1.9-0.2,3.3,0.1,4.2,0.9c1.2,1.1,1.8,3,1.8,6.3v28c0,4.7-2.4,8.1-6,8.8c-0.6,0.1-1.1,0.4-1.3,0.7c-0.2-0.4-0.6-0.6-1.3-0.7
		c-3.7-0.6-6-4.1-6-8.8V34.5c0-1.1-0.6-1.8-1.6-1.8c-1,0-2.1,0.2-3.1,0.6l-19.4,6.9c-0.6,0.3-1.4,0.8-1.1,1.9
		c0.3,0.9,0.8,1.3,1.9,1.3c0,0,0,0,0,0c1.9-0.2,3.2,0.1,4.1,0.9c1.2,1.1,1.7,3,1.7,6.4v28c0,4.8-2.3,8.1-5.9,8.8
		c-0.7,0.1-1.1,0.3-1.3,0.7c-0.2-0.4-0.6-0.7-1.2-0.7c-3.7-0.6-6-4-6-8.8v-2l-0.1,0.5V47.4c0-8.9-5.6-14.6-14.3-14.6
		c-7.8,0-14.9,4.6-19.2,12.4V34.5c0-1.1-0.7-1.8-1.8-1.8c-0.9,0-1.9,0.2-3.1,0.6l-19.4,6.9c-0.9,0.3-1.3,1.1-1.2,1.8
		c0.1,0.7,0.8,1.4,2,1.4c0,0,0,0,0,0c1.9-0.2,3.3,0.1,4.2,0.9c1.2,1.1,1.8,3,1.8,6.3v28c0,4.7-2.4,8.1-6,8.8
		c-1.1,0.1-1.6,0.9-1.6,1.6c0,0.7,0.6,1.4,1.6,1.4h63c0.6,0,1.1-0.3,1.3-0.8c0.2,0.5,0.7,0.8,1.3,0.8h29.4c0.6,0,1.1-0.3,1.3-0.7
		c0.3,0.4,0.7,0.7,1.3,0.7h63c0.9,0,1.5-0.7,1.5-1.5C179.5,88.5,179.1,87.7,178.1,87.6z M154.5,58v22.5c-0.6,4.6-3.5,7.3-8,7.3
		c-5.1,0-8.1-3.4-8.1-9V52.1c2.9-3.4,7.3-5.9,10.6-5.9C153,46.2,154.5,49.5,154.5,58z M56.9,58v22.5c-0.6,4.6-3.5,7.3-8,7.3
		c-5.1,0-8.1-3.4-8.1-9V52.1c2.9-3.4,7.3-5.9,10.6-5.9C55.3,46.2,56.9,49.5,56.9,58z"/>
	<path d="M225.8,85.9l2.4-15.1c0.2-1.3-0.5-2-1.3-2.2c-0.7-0.2-1.7,0.2-2,1.2c-4.1,11.1-10.6,12.4-15.1,12.4
		c-8.6,0-12.9-6.4-12.9-19.6h30.5c2.1,0,3.1-1.1,3.1-3.1c-0.5-17.1-9.5-26.6-25.4-26.6c-17.2,0-27.4,10.9-27.4,29.3
		c0,18.9,10.7,29.4,30.2,29.4c5.7,0,11.1-0.9,16.1-2.7C225,88.5,225.5,88,225.8,85.9z M197.2,56.4c1-9.3,4.4-14.4,9.5-14.4
		c5.1,0,7.6,4.7,7.6,14.4H197.2z"/>
	<path d="M371,98.8c-0.9-0.3-1.9,0.1-2.8,1.1c-8.1,9.5-49.8-0.1-80.3-7.2c-12-2.8-22.4-5.2-28.4-5.8l19.5-44.5
		c1.6-3.8,3-5.3,4.9-5.4c0.8-0.1,1.2-0.8,1.2-1.6c0-0.8-0.6-1.4-1.4-1.4h-16.5c-0.9,0-1.5,0.6-1.5,1.5c0,0.9,0.5,1.4,1.4,1.5
		c1.9,0.3,3,0.8,3.4,1.6c0.4,0.8,0.3,1.9-0.5,3.6l-9.6,23.1l-9.2-22.4c-0.9-2.1-1.1-3.4-0.7-4.3c0.4-0.8,1.5-1.3,3.6-1.6
		c0.9-0.1,1.2-0.6,1.2-1.5c0-1.4-0.8-1.5-1.4-1.5h-26.8c-0.9,0-1.4,0.6-1.4,1.5c0,0.8,0.5,1.4,1.3,1.5c2.1,0.3,3.4,1.2,5.2,5.4
		l19.4,44.4c-22.3,0.1-30.4,12.5-30.4,20.8c0,8.2,6.2,11.9,12.3,11.9c6.7,0,16.5-6.2,22.4-23.8c6.1,0.6,16.3,4.2,28.2,8.3
		c22.2,7.7,49.8,17.3,68.6,14.6c14.5-2.1,20.1-12.6,19.7-17.5C372.4,100,371.8,99.1,371,98.8z M236.8,102c-0.4-0.6-0.3-1.4,0.1-2.3
		c1.1-2.4,7-4.3,11-4.4c-1.3,2.2-4.9,7.6-9.2,7.6C237.9,102.9,237.1,102.6,236.8,102z"/>
	<path d="M381.1,32.4c-6.9,0-14.3,6.7-18.5,13.2V34.5c0-1.1-0.7-1.8-1.8-1.8c-0.9,0-1.9,0.2-3.1,0.6l-19.4,6.9
		c-0.6,0.3-1.4,0.8-1.1,1.9c0.3,0.9,0.8,1.3,1.9,1.3c0,0,0,0,0,0c1.9-0.2,3.3,0.1,4.2,0.9c1.2,1.1,1.8,3,1.8,6.3v28
		c0,4.7-2.4,8.1-6,8.8c-0.7,0.1-1.1,0.3-1.3,0.7c-0.2-0.4-0.6-0.6-1.2-0.7c-3.7-0.6-6-4-6-8.8V58.2c0-17.6-7.3-25.4-23.8-25.4
		c-16.6,0-22.4,7.8-22.4,14.5c0,7,6.1,11.3,15.9,11.3c1,0,1.5-0.7,1.6-1.4c0-0.6-0.3-1.4-1.3-1.5c-2-0.2-3-2.4-3-6.8
		c0-4.1,2.7-8.5,7.8-8.5c5.4,0,7.7,3.7,7.7,12.5c-1.7,4.2-7.2,6.6-13.1,9.2c-8.2,3.6-17.5,7.8-17.5,17.6c0,7.5,5.3,12.2,13.9,12.2
		c6.3-0.1,12.5-2.7,16.8-7v2.5c0,2.1,1.2,3.3,3.3,3.3h20.1c0.6,0,1.1-0.3,1.3-0.7c0.2,0.5,0.7,0.7,1.3,0.7h29.4c1,0,1.5-0.6,1.5-1.5
		c0-0.9-0.4-1.4-1.4-1.5c-3.7-0.6-6-4-6-8.8V52.4c2.8-2.5,7-3.4,9.9-3.4c3.1,0,5.4,1,7.3,3.1c0.8,0.9,1.4,1.2,1.9,1.1
		c0.5-0.2,0.7-0.7,0.8-1.7l0.6-16.9C383.1,33.4,382.3,32.4,381.1,32.4z M300.3,77.1c0-5.9,4-9,8.2-12.3c1.6-1.2,3.2-2.4,4.7-3.9
		v18.4c-2.2,2.3-5.2,3.8-7.7,3.9c-1.5,0.1-2.7-0.3-3.6-1.2C300.8,81,300.3,79.3,300.3,77.1z"/>
	<path d="M447,87.6c-3.7-0.6-6-4-6-8.8v-69c0-1.1-0.7-1.8-1.8-1.8c-0.9,0-1.9,0.2-3.1,0.6l-19.4,6.9c-0.6,0.3-1.4,0.8-1.1,1.9
		c0.3,1,0.9,1.5,1.9,1.3c1.9-0.2,3.3,0.2,4.3,1c1.2,1.1,1.7,3,1.7,6.3V39c-4-4.1-9-6.2-15-6.2c-6.8,0-13,2.8-17.4,8
		c-4.7,5.5-7.1,13.2-7.1,22.3c0,17.4,9.3,28.7,23.7,28.7c6.7,0,11.9-2.4,15.8-7.3v3.1c0,1.9,1.4,3,3.8,3h19.5c1,0,1.5-0.6,1.5-1.5
		C448.4,88.2,448,87.7,447,87.6z M413.1,82.2c-6.5,0-9.9-6.9-9.9-20.1c0-13.2,3.5-20.2,10.2-20.2c6.4,0,10.1,6,10.1,15.9v13.9
		C421.7,78.6,418,82.2,413.1,82.2z"/>
	<path d="M480.2,55.4c-5.5-2.6-10.2-4.8-10.2-9.3c0-3.3,2.6-5.2,7.1-5.2c6,0,10.1,3.5,14.7,12.6c0.4,0.8,1.2,1,1.9,0.8
		c0.5-0.2,1.1-0.7,0.9-1.6L492,36.7c-0.2-1.5-0.6-1.9-1.2-2.1l-0.7-0.2c-2.7-0.6-7.3-1.7-13.7-1.7c-15.6,0-25,6.5-25,17.5
		c0,10.3,8.5,14.2,16,17.7c5.9,2.7,10.9,5,10.9,9.8c0,1.1-0.6,4.8-8.2,4.8c-7.2,0-16.6-3.9-19.3-14.7c-0.2-0.6-0.7-1-1.4-0.8
		c-0.6,0.1-1.2,0.7-1.1,1.6l1.6,17.2c0.1,1.4,0.7,1.7,1.2,1.9l0.1,0.1c3.8,2.5,11.2,4,20.3,4c17,0,25.3-5.4,25.3-16.5
		C496.9,63.3,487.7,58.9,480.2,55.4z"/>
	<path d="M514.2,14.3c-0.5,0-0.6,0.4-0.6,0.6c0,0.1-0.1,0.3-1.2,0.3h-9.1c-1.2,0-1.2-0.2-1.2-0.3c0-0.2-0.1-0.6-0.6-0.6
		c-0.3,0-0.6,0.2-0.7,0.6l-0.6,6c0,0.2,0,0.4,0.1,0.5c0.1,0.1,0.3,0.2,0.5,0.2c0.4,0,0.6-0.2,0.7-0.6c0.2-1.8,1.9-3.1,3.9-3.3V31
		c0,0.9-0.4,1.5-1.1,1.6c-0.4,0-0.6,0.3-0.6,0.7c0,0.4,0.3,0.7,0.7,0.7h6.8c0.4,0,0.7-0.3,0.7-0.7c0-0.4-0.2-0.6-0.6-0.7
		c-0.7-0.1-1.1-0.8-1.1-1.6V17.8c2,0.2,3.7,1.5,3.9,3.3c0,0.4,0.3,0.6,0.7,0.6c0.2,0,0.4-0.1,0.5-0.2c0.1-0.1,0.2-0.3,0.1-0.5
		l-0.6-6.1C514.7,14.3,514.3,14.3,514.2,14.3z"/>
	<path d="M536.8,32.6c-0.7-0.1-1.1-0.8-1.1-1.6V18.1c0-0.9,0.4-1.5,1.1-1.6c0.4,0,0.6-0.3,0.6-0.7c0-0.4-0.3-0.7-0.7-0.7h-5.6
		c-0.7,0-1,0.6-1.2,1.1l-3.3,7.8l-1.8-3.9c-0.4-0.7-0.6-1.4-0.9-1.9c-1.1-2.4-1.4-3.1-3.2-3.1h-3.1V15l-0.1,0.2h-1.7
		c-0.4,0-0.7,0.3-0.7,0.7c0,0.4,0.2,0.6,0.6,0.7c0.7,0.1,1.1,0.8,1.1,1.6v3.1l0-0.1V31c0,1.5-0.6,1.6-0.8,1.6
		c-0.4,0-0.6,0.3-0.6,0.7c0,0.4,0.3,0.7,0.7,0.7h4.8c0.4,0,0.7-0.3,0.7-0.7c0-0.4-0.2-0.6-0.6-0.7c-0.7-0.1-1.2-0.8-1.2-1.6v-9.3
		l4.7,10.5c0.2,0.3,0.4,0.8,0.8,0.8c0,0,0,0,0,0c0.4,0,0.7-0.4,0.8-0.8l4.8-11.2v10c0,0.7-0.3,1.5-1.1,1.6c-0.5,0.1-0.6,0.4-0.6,0.7
		c0,0.4,0.3,0.7,0.7,0.7h6.8c0.4,0,0.7-0.3,0.7-0.7C537.4,32.9,537.2,32.6,536.8,32.6z"/>
</g>
</svg>
