<?xml version="1.0" encoding="utf-8"?>
<!-- Generator: Adobe Illustrator 23.0.6, SVG Export Plug-In . SVG Version: 6.00 Build 0)  -->
<svg version="1.1" id="Layer_1" xmlns="http://www.w3.org/2000/svg" xmlns:xlink="http://www.w3.org/1999/xlink" x="0px" y="0px"
	 viewBox="0 0 238.2 127.6" style="enable-background:new 0 0 238.2 127.6;" xml:space="preserve">
<style type="text/css">
	.st0{fill:#FFFFFF;}
</style>
<g>
	<path class="st0" d="M82.4,86c0-0.7-0.4-1.4-1.4-1.6c-3.7-0.6-6-4-6-8.8v-2l-0.1,0.5V44.2c0-8.9-5.6-14.6-14.3-14.6
		c-7.8,0-14.9,4.6-19.2,12.4V31.4c0-1.1-0.7-1.8-1.8-1.8c-0.9,0-1.9,0.2-3.1,0.6l-19.4,6.9c-0.9,0.3-1.3,1.1-1.2,1.8
		c0.1,0.7,0.8,1.4,2,1.4c0,0,0,0,0,0c1.9-0.2,3.3,0.1,4.2,0.9c1.2,1.1,1.8,3,1.8,6.3v28c0,4.7-2.4,8.1-6,8.8
		c-1.1,0.1-1.6,0.9-1.6,1.6c0,0.7,0.6,1.4,1.6,1.4h63C81.8,87.4,82.3,86.7,82.4,86z M57.4,54.8v22.5c-0.6,4.6-3.5,7.3-8,7.3
		c-5.1,0-8.1-3.4-8.1-9V48.9c2.9-3.4,7.3-5.9,10.6-5.9C55.8,43.1,57.4,46.4,57.4,54.8z"/>
	<path class="st0" d="M220.8,95.6c-0.8-0.3-1.9,0.1-2.8,1.1l0,0c-8.1,9.5-49.8-0.1-80.3-7.2c-12-2.8-22.4-5.2-28.4-5.8l19.5-44.5
		c1.6-3.8,3-5.3,4.9-5.4c0.8-0.1,1.2-0.8,1.2-1.6c0-0.8-0.6-1.4-1.4-1.4h-16.5c-0.9,0-1.5,0.6-1.5,1.5c0,0.9,0.5,1.4,1.4,1.5
		c1.9,0.3,3,0.8,3.4,1.6c0.4,0.8,0.3,1.9-0.5,3.6l-9.6,23.1l-9.2-22.4c-0.9-2.1-1.1-3.4-0.7-4.3c0.4-0.8,1.5-1.3,3.6-1.6
		c0.9-0.1,1.2-0.6,1.2-1.5c0-1.4-0.8-1.5-1.4-1.5H77c-0.9,0-1.4,0.6-1.4,1.5c0,0.8,0.5,1.4,1.3,1.5c2.1,0.3,3.4,1.2,5.2,5.4
		l19.4,44.4c-22.3,0.1-30.4,12.5-30.4,20.8c0,8.2,6.2,11.9,12.3,11.9c6.7,0,16.5-6.2,22.4-23.8c6.1,0.6,16.3,4.2,28.2,8.3
		c22.2,7.7,49.8,17.3,68.6,14.6c14.5-2.1,20.1-12.6,19.7-17.5C222.2,96.8,221.6,95.9,220.8,95.6z M86.6,98.8
		c-0.4-0.6-0.3-1.4,0.1-2.3c1.1-2.4,7-4.3,11-4.4c-1.3,2.2-4.9,7.6-9.2,7.6C87.7,99.8,87,99.4,86.6,98.8z"/>
	<path class="st0" d="M141.8,18.4c0.3,0,0.5-0.2,0.5-0.5c0.2-1.8,2-3.3,4.1-3.4v13.3c0,0.9-0.5,1.6-1.2,1.8c-0.3,0-0.5,0.2-0.5,0.5
		c0,0.3,0.2,0.5,0.5,0.5h6.8c0.3,0,0.5-0.2,0.5-0.5c0-0.3-0.2-0.5-0.5-0.5c-0.7-0.1-1.2-0.8-1.2-1.8V14.5c2.1,0.1,3.9,1.6,4.1,3.4
		c0,0.3,0.2,0.5,0.5,0.5c0.2,0,0.3-0.1,0.4-0.2c0.1-0.1,0.1-0.2,0.1-0.4l-0.6-6.1c-0.1-0.5-0.4-0.5-0.5-0.5c-0.4,0-0.5,0.3-0.5,0.5
		c-0.1,0.2-0.2,0.4-1.3,0.4h-9.1c-1.2,0-1.3-0.2-1.3-0.4c0-0.2-0.1-0.5-0.5-0.5c-0.1,0-0.5,0.1-0.5,0.5l-0.6,6c0,0.1,0,0.3,0.1,0.4
		C141.5,18.3,141.7,18.4,141.8,18.4z"/>
	<path class="st0" d="M156.8,13.2c0.7,0.1,1.2,0.8,1.2,1.8v2l0-0.1v10.9c0,1.6-0.7,1.7-0.9,1.8c-0.3,0-0.5,0.2-0.5,0.5
		c0,0.3,0.2,0.5,0.5,0.5h4.8c0.3,0,0.5-0.2,0.5-0.5c0-0.3-0.2-0.5-0.5-0.5c-0.8-0.1-1.3-0.9-1.3-1.8v-9.9l4.9,11.1
		c0.1,0.3,0.4,0.7,0.7,0.7c0,0,0,0,0,0c0.4,0,0.6-0.4,0.7-0.7l5.1-11.8v10.6c0,0.8-0.4,1.7-1.2,1.8c-0.4,0.1-0.5,0.3-0.5,0.5
		c0,0.3,0.2,0.5,0.6,0.5h6.8c0.3,0,0.5-0.2,0.5-0.5c0-0.3-0.2-0.5-0.5-0.5c-0.7-0.1-1.2-0.8-1.2-1.8V15c0-0.9,0.5-1.6,1.2-1.8
		c0.3,0,0.5-0.2,0.5-0.5c0-0.3-0.2-0.5-0.5-0.5h-5.6c-0.7,0-0.9,0.6-1.1,1.1l-3.5,8.1l-2-4.2c-0.4-0.7-0.6-1.4-0.9-1.9
		c-1.1-2.4-1.3-3-3.1-3.1h-4.8c-0.3,0-0.5,0.2-0.5,0.5C156.3,13,156.5,13.2,156.8,13.2z"/>
</g>
</svg>
