<?xml version="1.0" encoding="UTF-8"?><svg id="Camada_2" xmlns="http://www.w3.org/2000/svg" viewBox="0 0 1339.19 537.46"><defs><style>.cls-1{fill:#fff;}</style></defs><g id="Camada_1-2"><path class="cls-1" d="M304.61,285.61l-68.64-.06-25.36-28.95c-.74-1.95-1.51-3.42-3.78-4.4L66.25,92.84l-.16,192.75-66.05.04L0,9.05l69.82.09,96.96,110.24,58.5,69.37,9.26,10.99,7.43,8.58,59.65,70.11c1.73,2.03,3.94,2.95,2.98,7.16Z"/><path class="cls-1" d="M963.87,285.71l-37.27-57.02-65.1-103.39,71.91-.49c19.58-.13,32.54-17.73,29.57-36.42-.53-9.57-4.5-18.45-12.23-23.85-9.37-6.07-19.39-6.22-30.25-6.19l-109.03.31.18,226.95h-69.22s.02-276.52.02-276.52l206.94.13c3.17,0,5.68,2.13,8.79.66,29.41,3.46,54.79,16.14,67.53,43.7,10.93,23.66,11.19,51.01.83,74.9-11.87,27.35-35.52,36.35-63.49,41.64,1.97,5.1,4.63,7.91,7.59,11.62l75.55,103.76-82.33.21Z"/><polygon class="cls-1" points="1237.07 289.07 1166.99 289.17 1166.98 63.26 1064.6 63.2 1064.59 12.26 1339.17 12.2 1339.19 63.22 1237.11 63.26 1237.07 289.07"/><rect class="cls-1" x="238.7" y="8.8" width="66.19" height="148.83"/><path class="cls-1" d="M527.99,295.24l-17.64-.58c-50.11-1.64-105.04-21.26-133.11-64.39-13.89-21.35-20.83-45.16-22.71-70.35l-.19-23.88.71-11.11c2.3-14.35,5.63-28.33,11.68-41.35l5.78-12.45c3.9-8.39,17.66-24.14,26.12-31.42,16.8-14.46,36.03-24.4,57.51-30.41,27.68-7.76,56.05-10.76,84.74-8.65,41.38,3.05,80.6,13.04,111.77,40.79,28.51,25.38,40.21,63.38,40.94,101.04l-.96,22.44c-1.44,33.88-19.19,68.79-45.04,91.48-29.92,26.27-70.72,35.72-109.9,38.2l-9.69.61ZM483.76,237.99c27.11,9.57,56.64,8.97,82.87-1.15,21.63-8.34,37.96-24.11,47-45.24,20.72-48.45,5.83-108.85-43.73-131.35-30.69-13.93-66.04-13.06-95.93,2.68-14.51,7.64-26.33,18.21-34.59,32.76-16.63,29.29-18.3,66.51-4.4,97.44,6.34,14.11,16.43,25.24,28.34,35.23,5.11,4.28,13.06,7.03,20.43,9.63Z"/><path class="cls-1" d="M760.47,535.7l-14.2-25.06c-3.4-1.13-7.06-1.1-11.08-.3l-.07,25.13h-18.1s.01-71.13.01-71.13l41.78.16c12.6,1.61,20.82,11.6,19.61,24.22.21,8.89-5.6,15.62-14.11,18.46l16.25,28.42-20.09.1ZM750.11,496.57c6.19-.02,9.97-3.42,10.36-8.59.33-4.34-1.82-9.94-6.99-9.97l-18.34-.08.19,18.68,14.78-.04Z"/><path class="cls-1" d="M394.62,535.63l-14.31-25.02c-3.44-1.17-7.05-1.03-11.04-.27l-.05,25.14-18.11-.05v-71.08s41.56.15,41.56.15c11.4,1.3,19.78,9.67,19.79,21.1,1.34,10.13-4.38,18.39-14.09,21.59l16.32,28.38-20.07.06ZM384.1,496.58c5.94-.02,9.56-2.99,10.36-7.75.73-4.34-1.01-10.59-6.2-10.67l-19.04-.27.2,18.74,14.69-.05Z"/><path class="cls-1" d="M505.93,521.4c-6.68,10.78-17.13,15.94-29.35,16.05-13.66.13-25.84-6.4-31.81-19.03-5-10.57-5.43-23.08-1.4-33.96,5.52-14.88,18.82-22.72,34.18-22.1s26.2,8.29,31.33,21.98c4.59,12.26,4.24,25.43-2.96,37.05ZM491.09,512.54c4.13-8.65,3.52-18.6-.69-26.7-3.17-6.1-9.61-8.79-16.16-8.27-13.71,1.09-19.24,19.61-13.46,33.77,2.58,6.32,8.17,10.41,14.35,10.68,6.39.28,12.79-2.87,15.95-9.49Z"/><path class="cls-1" d="M1080.29,513.69c-.96,17.49-15.49,23.36-32.7,23.63-12.69.2-24.74-4.08-32.47-14.66l14.22-8.43c7.36,7.72,18.37,11.03,27.82,7.28,3.09-1.23,5.01-3.88,5.11-6.41.13-3.06-2.36-5.35-5.6-5.9l-18.64-3.16c-6.44-1.09-12.6-3.91-16.2-9.69s-3.61-13.54-.59-20.35c8.03-18.08,42.94-18.15,58.38.15l-13.55,9.43c-6.67-7.03-15.93-11.12-24.6-7.37-2.75,1.19-4.39,4.57-3.99,6.74.49,2.71,3.11,4.43,6.11,5l23.23,4.39c9.24,1.75,13.98,9.99,13.47,19.33Z"/><polygon class="cls-1" points="682.3 504.46 649.55 504.46 649.63 521.1 687.6 521.13 687.55 535.45 631.68 535.43 631.65 464.29 684.14 464.31 684.42 478.05 650.01 477.99 649.63 490.9 682.24 490.94 682.3 504.46"/><polygon class="cls-1" points="986.31 504.46 953.56 504.45 953.66 521.11 991.6 521.13 991.57 535.44 935.68 535.43 935.65 464.29 988.13 464.31 988.46 478.06 954.01 477.99 953.63 490.91 986.26 490.91 986.31 504.46"/><path class="cls-1" d="M560.55,512.16l-.17,23.32-18.07-.04.05-71.05,41.23.21c12.09.06,20.16,10.26,19.78,21.99,1.18,13.42-8.09,25.19-21.4,25.33l-21.42.23ZM585.6,487.16c-.07-5.62-4.05-9.29-9.09-9.34l-16.06-.14-.04,21.25,17-.48c5.49-.16,9.04-5.18,8.19-11.28Z"/><path class="cls-1" d="M280.37,512.16l-.35,23.34-17.86-.04-.07-71.19,41.45.4c12.02.12,19.92,10.39,19.46,22.02,1.14,13.19-7.84,24.11-21.04,25.15l-21.58.33ZM305.37,488.11c.19-6.25-4.05-10.37-9.78-10.39l-15.61-.05-.03,21.12,16.57-.2c5.46-.06,9.07-4.4,8.85-10.48Z"/><polygon class="cls-1" points="838.8 534.93 820.69 535.45 820.69 478.65 801.67 478.59 801.76 464.43 857.06 464.39 857.08 478.68 839 478.69 838.8 534.93"/><rect class="cls-1" x="857.99" y="490.74" width="71.31" height="18.11" transform="translate(393.03 1392.98) rotate(-89.95)"/></g></svg>