<?xml version="1.0" encoding="UTF-8"?><svg id="Camada_2" xmlns="http://www.w3.org/2000/svg" viewBox="0 0 246.88 64.65"><defs><style>.cls-1{fill:#fff;}</style></defs><g id="Camada_1-2"><path class="cls-1" d="M219.25,32h-11.06l-5.98-23.72h9.18l1.69,8.56.89,8.47h.61l1.98-9.41,2.35-7.62h11.39l2.35,7.62,1.98,9.41h.61l.94-8.47,1.65-8.56h9.03l-6.26,23.72h-11.06l-3.06-9.51-1.74-7.11h-.61l-1.79,7.11s-3.11,9.51-3.11,9.51ZM201.24,32h-8.28v-5.27h-.47v-8.42c0-1.19-.31-1.95-.94-2.26-.6-.35-1.68-.52-3.25-.52-1.44,0-2.45.17-3.01.52-.53.35-.8,1.02-.8,2.02v.19h-8.85v-.09c0-2.1.55-3.92,1.65-5.46,1.1-1.57,2.65-2.78,4.66-3.62,2.01-.85,4.35-1.27,7.01-1.27s5.05.44,6.87,1.32c1.82.85,3.17,2.07,4.05,3.67.91,1.57,1.37,3.47,1.37,5.69,0,0,0,13.51,0,13.51ZM183.55,32.47c-2.67,0-4.74-.58-6.21-1.74-1.44-1.16-2.16-2.75-2.16-4.75,0-1.13.27-2.13.8-3.01.53-.88,1.36-1.59,2.49-2.12,1.13-.56,2.59-.94,4.38-1.13l10.12-.99v4.89l-7.77.89c-.41.03-.71.13-.89.28-.16.16-.25.38-.24.61,0,.38.17.63.52.75.38.09.91.14,1.6.14,1.57,0,2.81-.08,3.72-.24.91-.19,1.57-.52,1.98-.99.41-.47.61-1.15.61-2.02l.66-.19v4.14h-.66c-.44,1.66-1.4,3-2.87,4-1.47.97-3.5,1.46-6.07,1.46ZM173.05,32h-8.85V.47h8.85v31.53ZM144.94,32.47c-3.64,0-6.76-.66-9.36-1.98-2.6-1.35-4.6-3.23-5.98-5.65-1.38-2.45-2.07-5.32-2.07-8.61s.69-6.15,2.07-8.56c1.38-2.45,3.37-4.33,5.98-5.65,2.6-1.35,5.73-2.02,9.36-2.02s6.57.53,9.08,1.6c2.54,1.07,4.49,2.6,5.84,4.61,1.35,2.01,2.02,4.42,2.02,7.25v.8h-9.88v-.8c0-1.79-.5-3.06-1.51-3.81-1-.79-2.81-1.18-5.41-1.18-2.13,0-3.8.22-4.99.66-1.12.37-2.01,1.21-2.45,2.31-.47,1.1-.71,2.7-.71,4.8s.24,3.67.71,4.8c.44,1.1,1.33,1.96,2.45,2.35,1.19.41,2.85.61,4.99.61,2.6,0,4.41-.38,5.41-1.13,1-.79,1.51-2.07,1.51-3.86v-.8h9.88v.8c0,2.79-.67,5.21-2.02,7.25-1.35,2.01-3.29,3.55-5.84,4.61-2.51,1.07-5.54,1.6-9.08,1.6h0ZM125.38,32h-8.85v-11.95c0-1.66-.36-2.79-1.08-3.39-.72-.63-2.05-.94-4-.94s-3.25.3-3.91.89c-.63.56-.94,1.61-.94,3.15h-.89l-.75-4.28h1.55c.18-1.31.62-2.57,1.27-3.72.69-1.16,1.69-2.1,3.01-2.82,1.35-.75,3.07-1.13,5.18-1.13s3.89.39,5.27,1.18c1.41.78,2.45,1.85,3.11,3.2.69,1.35,1.04,2.89,1.04,4.61v15.2ZM106.6,32h-8.85V8.28h8.28v7.29l.56.24v16.19ZM82.17,32.47c-2.67,0-5.04-.41-7.11-1.22-2.07-.82-3.69-2.13-4.85-3.95-1.16-1.82-1.74-4.2-1.74-7.15,0-2.57.58-4.77,1.74-6.59,1.15-1.84,2.8-3.31,4.75-4.23,2.04-1,4.38-1.51,7.01-1.51s5.1.45,7.11,1.36c2.01.88,3.56,2.2,4.66,3.95,1.1,1.73,1.65,3.86,1.65,6.4,0,.41-.02.78-.05,1.13,0,.31-.03.69-.09,1.13h-20.99v-4.47h14.59l-1.93,2.78v-1.65c0-1.44-.38-2.45-1.13-3.01-.72-.56-2.05-.85-4-.85s-3.37.31-4.09.94c-.69.63-1.04,1.76-1.04,3.39v2.26c0,1.66.36,2.79,1.08,3.39s2.09.89,4.09.89c1.79,0,2.98-.16,3.58-.47.63-.34.94-.86.94-1.55v-.52h8.85v.56c0,1.76-.53,3.31-1.6,4.66-1.07,1.35-2.57,2.41-4.52,3.2-1.95.75-4.25,1.13-6.92,1.13ZM55.72,32.47c-2.79,0-4.89-.6-6.31-1.79-1.41-1.22-2.29-2.82-2.63-4.8h-1.36v-5.46h.89c0,1.1.2,1.95.61,2.54.44.56,1.08.96,1.93,1.18.88.19,1.98.28,3.3.28s2.46-.14,3.25-.42c.82-.28,1.4-.74,1.74-1.36s.52-1.46.52-2.49-.17-1.9-.52-2.49c-.35-.63-.93-1.07-1.74-1.32-.78-.28-1.87-.42-3.25-.42-1.98,0-3.45.27-4.42.8-.94.53-1.41,1.66-1.41,3.39h-.89l-.66-5.41h1.46c.38-2.35,1.3-4.08,2.78-5.18,1.47-1.13,3.59-1.69,6.35-1.69,2.42,0,4.45.5,6.12,1.51,1.69.97,2.96,2.38,3.81,4.24.88,1.82,1.32,4.01,1.32,6.59s-.42,4.78-1.27,6.64c-.85,1.82-2.09,3.23-3.72,4.23-1.6.97-3.56,1.46-5.88,1.46h0ZM46.31,40h-8.85V8.28h8.28v6.68l.56.61v24.42ZM17.46,32.47c-3.64,0-6.78-.66-9.41-1.98-2.6-1.35-4.6-3.23-5.98-5.65-1.38-2.45-2.07-5.32-2.07-8.61s.69-6.15,2.07-8.56c1.38-2.45,3.37-4.33,5.98-5.65C10.68.67,13.82,0,17.46,0s6.95.67,9.55,2.02c2.64,1.32,4.64,3.2,6.02,5.65,1.38,2.41,2.07,5.27,2.07,8.56s-.69,6.16-2.07,8.61c-1.38,2.41-3.39,4.3-6.02,5.65-2.6,1.32-5.79,1.98-9.55,1.98ZM17.46,24c2.13,0,3.8-.2,4.99-.61,1.19-.44,2.02-1.22,2.49-2.35.5-1.13.75-2.73.75-4.8s-.25-3.7-.75-4.8c-.47-1.13-1.3-1.9-2.49-2.31-1.19-.44-2.85-.66-4.99-.66s-3.78.22-4.94.66c-1.12.37-2.01,1.21-2.45,2.31-.44,1.1-.66,2.7-.66,4.8s.22,3.67.66,4.8c.44,1.1,1.33,1.96,2.45,2.35,1.16.41,2.81.61,4.94.61h0Z"/><path class="cls-1" d="M72.94,60.33v-16.08h7.87c3.58,0,6.02,2.04,6.02,5.62s-2.45,5.62-6.02,5.62h-5.28v4.85h-2.59ZM75.53,46.58v6.58h5.04c2.42,0,3.67-.91,3.67-3.29s-1.25-3.29-3.67-3.29h-5.04Z"/><path class="cls-1" d="M88.04,54.38c0-3.72,2.66-6.22,6.62-6.22s6.65,2.5,6.65,6.22-2.67,6.19-6.65,6.19-6.62-2.52-6.62-6.19ZM98.76,54.38c0-2.54-1.2-3.94-4.1-3.94s-4.08,1.39-4.08,3.94,1.2,3.89,4.08,3.89,4.1-1.37,4.1-3.89Z"/><path class="cls-1" d="M103.35,60.33v-11.93h2.38v3.22h.17c.36-1.92,1.66-3.46,4.1-3.46,2.71,0,3.89,1.94,3.89,4.2v1.56h-2.57v-1.06c0-1.7-.72-2.5-2.5-2.5-2.04,0-2.88,1.13-2.88,3.26v6.7h-2.59Z"/><path class="cls-1" d="M120.77,60.33c-2.57,0-4.15-1.13-4.15-4.03v-5.74h-2.02v-2.16h2.02v-2.62h2.57v2.62h4.32v2.16h-4.32v5.59c0,1.46.67,1.85,2.16,1.85h2.16v2.33h-2.74Z"/><path class="cls-1" d="M125.28,55.58v-7.18h2.57v6.48c0,2.23,1.03,3.36,3.55,3.36s3.86-1.34,3.86-3.94v-5.9h2.57v11.93h-2.38v-3.7h-.14c-.38,2.02-1.97,3.94-5.04,3.94-3.36,0-4.99-2.23-4.99-4.99Z"/><path class="cls-1" d="M139.87,53.71c0-3.31,2.21-5.54,5.83-5.54,2.5,0,4.37,1.13,4.8,3.22h.14v-2.98h2.38v10.54c0,4.01-2.5,5.71-6.41,5.71-3.53,0-5.98-1.66-5.98-4.54h2.57c0,1.73,1.01,2.38,3.55,2.38,2.71,0,3.7-.74,3.7-3.41v-2.93h-.17c-.43,1.8-2.04,3.1-4.75,3.1-3.55,0-5.67-2.23-5.67-5.54ZM146.38,57.02c2.64,0,4.08-1.1,4.08-3.22v-.34c0-2.02-1.49-3.05-4.01-3.05s-3.96.84-3.96,3.29,1.44,3.31,3.89,3.31Z"/><path class="cls-1" d="M155.07,57.45c0-1.85,1.49-2.81,3.84-3.07l5.42-.58v-.7c0-1.97-.86-2.66-3.14-2.66s-3.29.72-3.29,2.47v.1h-2.57v-.1c0-2.71,2.26-4.75,6.05-4.75s5.5,2.06,5.5,4.92v7.25h-2.38v-2.98h-.17c-.62,2.02-2.52,3.22-5.23,3.22-2.47,0-4.03-1.15-4.03-3.12ZM159.79,58.7c2.71,0,4.54-1.01,4.54-3.36l-4.68.53c-1.34.17-1.99.48-1.99,1.42s.65,1.42,2.14,1.42Z"/><path class="cls-1" d="M169.35,60.33v-16.08h2.59v16.08h-2.59Z"/></g></svg>