<?xml version="1.0" encoding="UTF-8"?><svg id="Camada_2" xmlns="http://www.w3.org/2000/svg" viewBox="0 0 979.19 225"><defs><style>.cls-1{fill:#fff;}</style></defs><g id="Camada_1-2"><path class="cls-1" d="M155.7,14.25C140.7,4.75,122.4,0,100.8,0s-39.75,4.75-54.75,14.25c-15,9.5-26.43,22.7-34.27,39.6C3.92,70.75,0,90.3,0,112.5s3.92,41.75,11.78,58.65c7.85,16.9,19.27,30.1,34.27,39.6,15,9.5,33.25,14.25,54.75,14.25s39.9-4.75,54.9-14.25c15-9.5,26.4-22.7,34.2-39.6,7.8-16.9,11.7-36.45,11.7-58.65s-3.9-41.75-11.7-58.65c-7.8-16.9-19.2-30.1-34.2-39.6ZM165.15,157.95c-5.4,13.1-13.45,23.32-24.15,30.67-10.7,7.35-24.1,10.98-40.2,10.88-16.1-.1-29.53-3.83-40.27-11.17-10.75-7.35-18.83-17.52-24.23-30.53-5.4-13-8.05-28.1-7.95-45.3.1-17.2,2.85-32.37,8.25-45.52,5.4-13.15,13.43-23.37,24.08-30.68,10.65-7.3,24.02-10.9,40.12-10.8,16.1.1,29.5,3.8,40.2,11.1,10.7,7.3,18.75,17.48,24.15,30.52,5.4,13.05,8.1,28.18,8.1,45.38s-2.7,32.35-8.1,45.45Z"/><path class="cls-1" d="M418.2,116.1c8.7-12.2,13.05-26.7,13.05-43.5,0-11.4-2-21.83-6-31.27-4-9.45-9.98-17.3-17.93-23.55-7.95-6.25-17.77-10.27-29.47-12.07-2.7-.5-5.5-.83-8.4-.98-2.9-.15-5.4-.23-7.5-.23h-85.35v216h26.7v-79.8h63.18l38.67,79.8h30.6l-41.69-85.51c10.02-4.08,18.07-10.37,24.14-18.89ZM303.3,115.35V29.85h57.75c1.9,0,4.07.1,6.52.3,2.45.2,4.77.55,6.98,1.05,6.9,1.6,12.5,4.53,16.8,8.77,4.3,4.25,7.47,9.25,9.53,15,2.05,5.75,3.07,11.62,3.07,17.62s-1.03,11.88-3.07,17.62c-2.05,5.75-5.23,10.75-9.53,15-4.3,4.25-9.9,7.18-16.8,8.77-2.2.5-4.53.85-6.98,1.05-2.45.2-4.63.3-6.52.3h-57.75Z"/><polygon class="cls-1" points="619.65 176.55 538.04 4.5 513.75 4.5 513.75 220.5 539.09 220.5 539.09 63.15 612.45 220.5 626.7 220.5 700.04 63.15 700.04 220.35 725.4 220.35 725.4 4.5 700.79 4.5 619.65 176.55"/><path class="cls-1" d="M951.44,220.5h27.75L906.89,4.5h-37.2l-72.3,216h27.75l16.91-50.55h92.32l17.06,50.55ZM850.44,144.9l37.57-112.3,37.91,112.3h-75.48Z"/></g></svg>